<?xml version="1.0" encoding="UTF-8" standalone="no"?>
<!-- Created with Inkscape (http://www.inkscape.org/) -->

<svg
   width="210mm"
   height="297mm"
   viewBox="0 0 210 297"
   version="1.1"
   id="svg1"
   inkscape:version="1.4 (86a8ad7, 2024-10-11)"
   sodipodi:docname="ружье1.svg"
   xmlns:inkscape="http://www.inkscape.org/namespaces/inkscape"
   xmlns:sodipodi="http://sodipodi.sourceforge.net/DTD/sodipodi-0.dtd"
   xmlns="http://www.w3.org/2000/svg"
   xmlns:svg="http://www.w3.org/2000/svg"
   xmlns:rdf="http://www.w3.org/1999/02/22-rdf-syntax-ns#"
   xmlns:cc="http://creativecommons.org/ns#"
   xmlns:dc="http://purl.org/dc/elements/1.1/">
  <title
     id="title37">Ружье</title>
  <sodipodi:namedview
     id="namedview1"
     pagecolor="#ffffff"
     bordercolor="#000000"
     borderopacity="0.25"
     inkscape:showpageshadow="2"
     inkscape:pageopacity="0.0"
     inkscape:pagecheckerboard="0"
     inkscape:deskcolor="#d1d1d1"
     inkscape:document-units="mm"
     inkscape:zoom="30.115606"
     inkscape:cx="323.43695"
     inkscape:cy="604.65328"
     inkscape:window-width="1920"
     inkscape:window-height="986"
     inkscape:window-x="-11"
     inkscape:window-y="-11"
     inkscape:window-maximized="1"
     inkscape:current-layer="layer1" />
  <defs
     id="defs1">
    <inkscape:path-effect
       effect="fillet_chamfer"
       id="path-effect31"
       is_visible="true"
       lpeversion="1"
       nodesatellites_param="F,0,0,1,0,0,0,1 @ F,0,0,1,0,0,0,1"
       radius="0"
       unit="px"
       method="auto"
       mode="F"
       chamfer_steps="1"
       flexible="false"
       use_knot_distance="true"
       apply_no_radius="true"
       apply_with_radius="true"
       only_selected="false"
       hide_knots="false" />
  </defs>
  <g
     inkscape:label="Слой 1"
     inkscape:groupmode="layer"
     id="layer1">
    <path
       style="fill:none;fill-rule:evenodd;stroke:#000000;stroke-width:0.264583px;stroke-linecap:round;stroke-linejoin:miter;stroke-opacity:1"
       d="M 75.907486,160.24914 123.13881,101.20998"
       id="path1"
       inkscape:connector-type="polyline"
       inkscape:connector-curvature="0" />
    <path
       style="fill:none;fill-rule:evenodd;stroke:#000000;stroke-width:0.264583px;stroke-linecap:round;stroke-linejoin:miter;stroke-opacity:1"
       d="m 122.99824,101.28027 2.20855,2.11061"
       id="path2"
       inkscape:connector-type="polyline"
       inkscape:connector-curvature="0"
       sodipodi:nodetypes="cc" />
    <path
       style="fill:none;fill-rule:evenodd;stroke:#000000;stroke-width:0.265;stroke-linecap:round;stroke-linejoin:miter;stroke-dasharray:none;stroke-opacity:1"
       d="M 125.24096,103.37349 87.668673,157.64458"
       id="path3"
       inkscape:connector-type="polyline"
       inkscape:connector-curvature="0"
       sodipodi:nodetypes="cc" />
    <path
       style="fill-rule:evenodd;stroke-linecap:round;stroke-linejoin:round"
       d="m 87.6875,157.33984 c -2.071385,1.58526 -3.164293,2.88438 -3.585938,4.01758 -0.421644,1.1332 -0.146778,2.09738 0.478516,2.92774 a 0.13249999,0.13249999 0 0 0 0.185547,0.0254 0.13249999,0.13249999 0 0 0 0.02734,-0.18555 c -0.590162,-0.7837 -0.835531,-1.62179 -0.44336,-2.67578 0.392171,-1.05399 1.446583,-2.32843 3.498047,-3.89844 a 0.13249999,0.13249999 0 0 0 0.02539,-0.18555 0.13249999,0.13249999 0 0 0 -0.185547,-0.0254 z"
       id="path4" />
    <path
       style="fill:none;fill-rule:evenodd;stroke:#000000;stroke-width:0.264583px;stroke-linecap:round;stroke-linejoin:miter;stroke-opacity:1"
       d="m 84.657634,164.10542 -5.864458,21.86747"
       id="path5"
       inkscape:connector-type="polyline"
       inkscape:connector-curvature="0" />
    <path
       style="fill:none;fill-rule:evenodd;stroke:#000000;stroke-width:0.264583px;stroke-linecap:round;stroke-linejoin:miter;stroke-opacity:1"
       d="m 78.764061,185.9498 -9.413658,-8.13957"
       id="path6"
       inkscape:connector-type="polyline"
       inkscape:connector-curvature="0"
       sodipodi:nodetypes="cc" />
    <path
       style="fill:none;fill-rule:evenodd;stroke:#000000;stroke-width:0.264583px;stroke-linecap:round;stroke-linejoin:miter;stroke-opacity:1"
       d="m 69.379517,177.92168 8.249999,-15.70481"
       id="path7"
       inkscape:connector-type="polyline"
       inkscape:connector-curvature="0" />
    <path
       style="fill:none;fill-rule:evenodd;stroke:#000000;stroke-width:0.264583px;stroke-linecap:round;stroke-linejoin:miter;stroke-opacity:1"
       d="m 75.97777,160.14371 1.581407,2.0734"
       id="path8"
       inkscape:connector-type="polyline"
       inkscape:connector-curvature="0" />
    <path
       style="fill-rule:evenodd;stroke-linecap:round"
       d="m 85.646484,161.35352 c -0.225241,0.11443 -0.426699,0.23914 -0.625,0.27343 -0.1983,0.0343 -0.40346,-0.002 -0.695312,-0.25586 a 0.1322915,0.1322915 0 0 0 -0.185547,0.0137 0.1322915,0.1322915 0 0 0 0.01172,0.18554 c 0.332948,0.2901 0.643913,0.36508 0.914062,0.31836 0.270149,-0.0467 0.490832,-0.19295 0.699219,-0.29883 a 0.1322915,0.1322915 0 0 0 0.05859,-0.17773 0.1322915,0.1322915 0 0 0 -0.177735,-0.0586 z"
       id="path9" />
    <path
       style="fill-rule:evenodd;stroke-linecap:round"
       d="m 85.796875,159.00781 a 0.1322915,0.1322915 0 0 0 -0.02148,0.18555 c 0.390157,0.49398 0.653133,1.01343 0.542968,1.74414 -0.110164,0.73071 -0.610743,1.68783 -1.804687,3.00391 a 0.1322915,0.1322915 0 0 0 0.0098,0.1875 0.1322915,0.1322915 0 0 0 0.1875,-0.01 c 1.212001,-1.33598 1.746643,-2.33006 1.869141,-3.14258 0.122499,-0.81252 -0.185856,-1.42588 -0.597656,-1.94726 a 0.1322915,0.1322915 0 0 0 -0.185547,-0.0215 z"
       id="path10" />
    <path
       style="fill:#000000;fill-opacity:1;fill-rule:evenodd;stroke:#000000;stroke-width:0.264583px;stroke-linecap:round;stroke-linejoin:miter;stroke-opacity:1"
       d="m 79.841113,155.40813 1.26732,1.04368"
       id="path11"
       inkscape:connector-type="polyline"
       inkscape:connector-curvature="0" />
    <path
       style="fill:#000000;fill-opacity:1;fill-rule:evenodd;stroke:#000000;stroke-width:0.264583px;stroke-linecap:round;stroke-linejoin:miter;stroke-opacity:1"
       d="m 81.083583,156.40211 4.920181,-6.26205"
       id="path12"
       inkscape:connector-type="polyline"
       inkscape:connector-curvature="0" />
    <path
       style="fill:#000000;fill-opacity:1;fill-rule:evenodd;stroke:#000000;stroke-width:0.264583px;stroke-linecap:round;stroke-linejoin:miter;stroke-opacity:1"
       d="m 85.978914,150.16491 -1.24247,-0.89458"
       id="path13"
       inkscape:connector-type="polyline"
       inkscape:connector-curvature="0" />
    <path
       style="fill:none;fill-rule:evenodd;stroke:#000000;stroke-width:0.264583px;stroke-linecap:butt;stroke-linejoin:miter;stroke-opacity:1"
       d="m 76.329195,160.54785 0.983985,1.31784"
       id="path14"
       inkscape:connector-type="polyline"
       inkscape:connector-curvature="0"
       sodipodi:nodetypes="cc" />
    <path
       style="fill:none;fill-rule:evenodd;stroke:#000000;stroke-width:0.265;stroke-linecap:round;stroke-linejoin:miter;stroke-dasharray:none;stroke-opacity:1"
       d="m 85.419803,148.08998 2.199172,-2.79555"
       id="path15"
       inkscape:connector-type="polyline"
       inkscape:connector-curvature="0" />
    <path
       style="fill:none;fill-rule:evenodd;stroke:#000000;stroke-width:0.264583px;stroke-linecap:round;stroke-linejoin:miter;stroke-opacity:1"
       d="m 87.755647,145.39382 -0.894578,-0.79518"
       id="path16"
       inkscape:connector-type="polyline"
       inkscape:connector-curvature="0" />
    <path
       style="fill:none;fill-rule:evenodd;stroke:#000000;stroke-width:0.264583px;stroke-linecap:round;stroke-linejoin:miter;stroke-opacity:1"
       d="m 122.03539,102.60316 -1.98795,-1.56551"
       id="path17"
       inkscape:connector-type="polyline"
       inkscape:connector-curvature="0" />
    <path
       style="fill:#636363;fill-opacity:1;stroke-width:0.0940669;stroke-linecap:round;stroke-dasharray:none"
       d="m 304.39142,588.81779 c -1.0331,-0.8531 -1.89146,-1.58841 -1.90746,-1.63401 -0.0249,-0.071 17.57568,-22.15259 17.74823,-22.26678 0.0343,-0.0227 0.93264,0.58664 1.99629,1.35409 l 1.9339,1.39536 -0.16486,0.22298 c -0.5769,0.78023 -17.64286,22.47643 -17.68076,22.47778 -0.0258,9.3e-4 -0.89223,-0.69631 -1.92534,-1.54942 z"
       id="path18"
       transform="scale(0.26458333)" />
    <path
       style="fill:#000000;fill-opacity:1;stroke-width:0.0665153;stroke-linecap:round;stroke-dasharray:none"
       d="m 290.07563,611.14587 c -1.13127,-0.24612 -1.64092,-0.81362 -1.64098,-1.82724 -3e-5,-0.427 0.12971,-1.31592 0.18251,-1.25047 0.01,0.012 0.55889,0.73164 1.22042,1.59913 l 1.20279,1.57725 -0.27988,-0.005 c -0.15393,-0.003 -0.46211,-0.0449 -0.68486,-0.0934 z"
       id="path19"
       transform="scale(0.26458333)" />
    <path
       style="fill:#000000;fill-opacity:1;stroke-width:0.264999;stroke-linecap:round;stroke-dasharray:none"
       d="m 122.87406,101.49115 c 0.0124,-0.004 0.0248,-0.008 0.0373,-0.0124 0.002,0 0.004,5.3e-4 0.006,0 0.0366,-0.009 0.004,-0.0117 0.0248,-0.0186 0.0289,-0.01 0.12734,0.0109 0.1491,0 0.003,-0.001 0.004,-0.005 0.006,-0.006 0.005,-0.002 0.0883,-0.002 0.0932,0 0.0136,-0.002 0.002,0.0104 0.006,0.0124 0.006,0.003 0.0142,-0.004 0.0186,0 0.01,0.01 -0.007,0.0248 0.0186,0.0248"
       id="path20" />
    <path
       style="fill:#000000;fill-opacity:1;stroke-width:0.264999;stroke-linecap:round;stroke-dasharray:none"
       d="m 125.03595,103.68411 c 0,-0.0145 -0.001,-0.029 0,-0.0435 0.003,-0.0467 0.0191,-0.096 0.0124,-0.14288 -0.001,-0.006 -0.005,-0.0122 -0.006,-0.0186 -0.003,-0.0158 0.004,-0.0342 0,-0.0497 -0.006,-0.0245 -0.018,-0.0446 -0.0248,-0.0683 -0.002,-0.008 0.003,-0.017 0,-0.0249 -0.007,-0.0207 -0.006,-0.0401 -0.006,-0.0621"
       id="path21" />
    <path
       style="fill:#000000;fill-opacity:1;stroke-width:0.264999;stroke-linecap:round;stroke-dasharray:none"
       d="m 87.320783,157.79367 c 0.02072,0 0.06212,0.0207 0.06212,0 0,-0.0207 -0.08221,0.005 -0.06212,0 0.04038,-0.0101 0.08702,0.006 0.124246,-0.0124 0.0031,-0.002 0.06148,-0.0489 0.06212,-0.0497 0.01156,-0.0145 0.01328,-0.0352 0.02484,-0.0497 0.0099,-0.0123 0.0502,-0.0378 0.06212,-0.0497 0.01056,-0.0106 0.01204,-0.0296 0.02484,-0.0373 0.01066,-0.006 0.02617,0.006 0.03727,0 0.06843,-0.0342 -0.0118,-0.0131 0.01244,-0.0373 0.01056,-0.0105 0.02392,-0.0182 0.03727,-0.0248 0.01172,-0.006 0.02942,-0.002 0.03727,-0.0124 0.0075,-0.01 -0.0064,-0.0266 0,-0.0373 0.0077,-0.0128 0.02795,-0.0132 0.03727,-0.0248 0.0127,-0.0159 0.05107,-0.1132 0.06212,-0.12425 0.01056,-0.0106 0.02959,-0.012 0.03727,-0.0248 0.045,-0.075 -0.01244,-0.0135 -0.01244,-0.0497 0,-0.0422 0.08697,-0.0807 0.08697,-0.1491"
       id="path22" />
    <path
       style="fill:#000000;fill-opacity:1;stroke-width:0.264999;stroke-linecap:round;stroke-dasharray:none"
       d="m 78.536521,185.71197 c 0.08939,0.0179 0.06448,0.002 0.149096,0.087 0.0029,0.003 -0.0037,0.0106 0,0.0124 0.01527,0.008 0.03442,0.005 0.0497,0.0124 0.01048,0.005 0.01511,0.0184 0.02484,0.0248 0.01722,0.0115 0.04142,0 0.06212,0 0.05773,0 0.03727,-0.11173 0.03727,-0.1491"
       id="path24" />
    <path
       style="fill:#000000;fill-opacity:1;stroke-width:0.264999;stroke-linecap:round;stroke-dasharray:none"
       d="m 69.528615,177.62349 c 0.0042,0.0877 -0.08539,0.19653 -0.0497,0.28577 0.0056,0.0139 0.02013,0.0231 0.02484,0.0373 0.0039,0.0118 0,0.0249 0,0.0373 0,0.0174 0.0353,0.0305 0.0497,0.0497 0.01418,0.0189 -0.0039,0.0124 0.03727,0.0124"
       id="path25" />
    <path
       style="fill:#000000;fill-opacity:1;stroke-width:0.264999;stroke-linecap:round;stroke-dasharray:none"
       d="m 77.418297,161.99322 c 0.02484,0.008 0.05359,0.009 0.07455,0.0248 0.01482,0.0111 0.01656,0.0331 0.02484,0.0497 0.0083,0.0166 0.02035,0.0317 0.02484,0.0497 0.004,0.0161 -0.0033,0.0335 0,0.0497 0.0011,0.006 0.01101,0.007 0.01243,0.0124 0.0063,0.0252 0.0058,0.25581 0,0.27334 -0.0071,0.0213 -0.02484,0.0289 -0.02484,0.0497"
       id="path26" />
    <path
       style="fill:#000000;fill-opacity:1;stroke-width:0.264999;stroke-linecap:round;stroke-dasharray:none"
       d="m 76.188252,159.8686 c -0.01244,0.0248 -0.06212,0.0621 -0.03728,0.0746 0.02484,0.0124 0.06039,-0.09 0.03728,-0.0746 -0.111946,0.0746 -0.07455,0.21093 -0.07455,0.32304 0,0.015 -3.7e-5,0.14908 0,0.1491 0.02899,0.0145 0.02484,-0.0155 0.02484,0.0124"
       id="path27" />
    <path
       style="fill:#000000;fill-opacity:1;stroke-width:0.188134;stroke-linecap:round;stroke-dasharray:none"
       d="m 280.34816,686.99493 c -11.19846,-9.69575 -16.99562,-14.83441 -16.98844,-15.05874 0.006,-0.1873 6.86853,-13.3957 15.25009,-29.352 8.38157,-15.95631 15.28967,-29.14343 15.35135,-29.3047 0.0696,-0.18213 -0.12338,-0.53798 -0.50945,-0.93919 -0.6724,-0.69878 -5.40219,-6.84793 -5.40219,-7.02334 0,-0.0587 3.07673,-3.95134 6.83719,-8.65037 l 6.83718,-8.5437 2.26556,1.87727 c 2.26739,1.87879 2.90708,2.19016 3.12017,1.51878 0.0626,-0.19718 4.25237,-5.62652 9.31064,-12.06522 5.05827,-6.43869 9.19685,-11.85318 9.19685,-12.0322 0,-0.17901 -0.19018,-0.42486 -0.42263,-0.54632 -0.76126,-0.39778 -4.09449,-2.86537 -4.0424,-2.99259 0.028,-0.0683 10.27419,-12.90053 22.7694,-28.51606 l 22.71855,-28.39188 h 5.22235 5.22234 v 10.84787 10.84786 l -22.75831,32.87142 c -21.69231,31.33172 -22.8159,32.91542 -23.98773,33.81061 -5.37635,4.10718 -9.71079,8.73719 -11.6123,12.40416 -1.24678,2.40436 -1.65631,3.97296 -1.64108,6.28572 0.0148,2.24409 0.40393,3.6558 1.51167,5.48382 l 0.64817,1.06963 -10.83624,40.44256 c -5.95993,22.24341 -10.8869,40.49482 -10.94882,40.55869 -0.0619,0.0639 -7.76228,-6.50707 -17.11192,-14.60208 z"
       id="path34"
       transform="scale(0.26458333)" />
    <path
       style="fill:#800000;fill-opacity:1;stroke-width:0.188134;stroke-linecap:round;stroke-dasharray:none"
       d="m 295.83906,700.1159 c -6.26729,-5.23846 -28.64407,-24.67841 -30.89361,-26.83898 l -1.40878,-1.35307 1.35795,-2.73126 c 1.30216,-2.61905 8.39919,-16.21881 22.56186,-43.23443 3.63212,-6.92836 6.60386,-12.6945 6.60386,-12.81366 0,-0.11915 -0.66031,-1.04361 -1.46735,-2.05435 -0.80704,-1.01074 -2.12829,-2.70204 -2.93611,-3.75845 -1.41353,-1.84852 -1.45796,-1.93721 -1.18159,-2.35901 0.1977,-0.30173 12.05262,-15.23724 13.1994,-16.62937 0.0268,-0.0325 0.99362,0.70712 2.14853,1.64363 2.47963,2.01073 2.90627,2.18192 3.49754,1.40342 1.46826,-1.93321 5.06956,-6.58175 9.95464,-12.84943 7.3578,-9.44026 8.34296,-10.76314 8.33536,-11.19287 -0.004,-0.23517 -0.50672,-0.6949 -1.45574,-1.33165 -0.79717,-0.53487 -1.76311,-1.25335 -2.14655,-1.59662 l -0.69714,-0.62414 22.73717,-28.4105 22.73717,-28.41049 h 5.14953 5.14952 l -0.002,10.75372 -0.002,10.75373 -17.89117,25.82772 c -29.07716,41.97585 -27.50619,39.79722 -30.34014,42.0757 -2.65514,2.13473 -6.61094,6.08738 -8.17746,8.17095 -1.61364,2.14625 -3.05018,5.01188 -3.43697,6.85609 -0.58753,2.80138 -0.11592,5.89506 1.23282,8.08704 0.31636,0.51415 0.57521,1.05109 0.57521,1.19319 0,0.46714 -21.47713,80.44469 -21.64863,80.61618 -0.032,0.032 -0.73177,-0.5049 -1.5551,-1.19309 z"
       id="path35"
       transform="scale(0.26458333)" />
    <path
       style="fill:#800000;fill-opacity:1;stroke-width:0.188134;stroke-linecap:round;stroke-dasharray:none"
       d="m 377.08472,517.8089 v -10.82829 l -5.18472,-0.0499 -5.18471,-0.0499 48.01196,-60.01423 48.01196,-60.01423 2.68257,-0.0517 2.68257,-0.0517 2.10711,1.99303 c 1.15891,1.09617 2.10711,2.07751 2.10711,2.18076 0,0.14098 -90.71459,131.34595 -94.51237,136.69788 l -0.72148,1.01672 z"
       id="path36"
       transform="scale(0.26458333)" />
    <path
       style="fill:#800000;fill-opacity:1;stroke-width:0.133031;stroke-linecap:round;stroke-dasharray:none"
       d="m 462.91184,386.61018 c 0.0703,-0.0913 0.59247,-0.74912 1.16035,-1.4618 l 1.03251,-1.29576 1.46684,1.36218 1.46685,1.36218 -0.71823,0.0865 c -0.39503,0.0476 -1.57727,0.0924 -2.6272,0.0996 -1.50832,0.0104 -1.88214,-0.0217 -1.78112,-0.15289 z"
       id="path37"
       transform="scale(0.26458333)" />
  </g>
  <metadata
     id="metadata37">
    <rdf:RDF>
      <cc:Work
         rdf:about="">
        <dc:title>Ружье</dc:title>
      </cc:Work>
    </rdf:RDF>
  </metadata>
</svg>
