<?xml version="1.0" encoding="UTF-8" standalone="no"?>
<!-- Created with Inkscape (http://www.inkscape.org/) -->

<svg
   width="100"
   height="100"
   viewBox="0 0 26.458333 26.458333"
   version="1.1"
   id="svg1"
   inkscape:version="1.4 (86a8ad7, 2024-10-11)"
   sodipodi:docname="mine.svg"
   xmlns:inkscape="http://www.inkscape.org/namespaces/inkscape"
   xmlns:sodipodi="http://sodipodi.sourceforge.net/DTD/sodipodi-0.dtd"
   xmlns="http://www.w3.org/2000/svg"
   xmlns:svg="http://www.w3.org/2000/svg"
   xmlns:rdf="http://www.w3.org/1999/02/22-rdf-syntax-ns#"
   xmlns:cc="http://creativecommons.org/ns#"
   xmlns:dc="http://purl.org/dc/elements/1.1/">
  <title
     id="title18">mine</title>
  <sodipodi:namedview
     id="namedview1"
     pagecolor="#ffffff"
     bordercolor="#000000"
     borderopacity="0.25"
     inkscape:showpageshadow="2"
     inkscape:pageopacity="0.0"
     inkscape:pagecheckerboard="0"
     inkscape:deskcolor="#d1d1d1"
     inkscape:document-units="mm"
     inkscape:zoom="7.5289016"
     inkscape:cx="25.966603"
     inkscape:cy="45.690596"
     inkscape:window-width="1920"
     inkscape:window-height="986"
     inkscape:window-x="-11"
     inkscape:window-y="-11"
     inkscape:window-maximized="1"
     inkscape:current-layer="layer1" />
  <defs
     id="defs1">
    <inkscape:path-effect
       effect="fillet_chamfer"
       id="path-effect12"
       is_visible="true"
       lpeversion="1"
       nodesatellites_param=""
       radius="0"
       unit="px"
       method="auto"
       mode="F"
       chamfer_steps="1"
       flexible="false"
       use_knot_distance="true"
       apply_no_radius="true"
       apply_with_radius="true"
       only_selected="false"
       hide_knots="false" />
    <inkscape:path-effect
       effect="fillet_chamfer"
       id="path-effect10"
       is_visible="true"
       lpeversion="1"
       nodesatellites_param="F,0,0,1,0,0,0,1 @ F,0,0,1,0,0,0,1 @ F,0,0,1,0,0,0,1 @ F,0,0,1,0,0,0,1 @ F,0,0,1,0,0,0,1 @ F,0,0,1,0,0,0,1 @ F,0,0,1,0,0,0,1 @ F,0,0,1,0,0,0,1 @ F,0,0,1,0,0,0,1"
       radius="0"
       unit="px"
       method="auto"
       mode="F"
       chamfer_steps="1"
       flexible="false"
       use_knot_distance="true"
       apply_no_radius="true"
       apply_with_radius="true"
       only_selected="false"
       hide_knots="false" />
    <inkscape:path-effect
       effect="fillet_chamfer"
       id="path-effect9"
       is_visible="true"
       lpeversion="1"
       nodesatellites_param="F,0,0,1,0,0,0,1 @ F,0,0,1,0,0,0,1 @ F,0,0,1,0,0,0,1 @ F,0,0,1,0,0,0,1 @ F,0,0,1,0,0,0,1 @ F,0,0,1,0,0,0,1 @ F,0,0,1,0,0,0,1 @ F,0,0,1,0,0,0,1 @ F,0,0,1,0,0,0,1 @ F,0,0,1,0,0,0,1 @ F,0,0,1,0,0,0,1"
       radius="0"
       unit="px"
       method="auto"
       mode="F"
       chamfer_steps="1"
       flexible="false"
       use_knot_distance="true"
       apply_no_radius="true"
       apply_with_radius="true"
       only_selected="false"
       hide_knots="false" />
    <inkscape:path-effect
       effect="fillet_chamfer"
       id="path-effect8"
       is_visible="true"
       lpeversion="1"
       nodesatellites_param="F,0,0,1,0,0,0,1 @ F,0,0,1,0,0,0,1 @ F,0,0,1,0,0,0,1 @ F,0,0,1,0,0,0,1 @ F,0,0,1,0,0,0,1 @ F,0,0,1,0,0,0,1 @ F,0,0,1,0,0,0,1 @ F,0,0,1,0,0,0,1 @ F,0,0,1,0,0,0,1 @ F,0,0,1,0,0,0,1"
       radius="0"
       unit="px"
       method="auto"
       mode="F"
       chamfer_steps="1"
       flexible="false"
       use_knot_distance="true"
       apply_no_radius="true"
       apply_with_radius="true"
       only_selected="false"
       hide_knots="false" />
    <inkscape:path-effect
       effect="fillet_chamfer"
       id="path-effect5"
       is_visible="true"
       lpeversion="1"
       nodesatellites_param="F,0,0,1,0,0,0,1 @ F,0,0,1,0,0,0,1 @ F,0,0,1,0,0,0,1 @ F,0,0,1,0,0,0,1 @ F,0,0,1,0,0,0,1 @ F,0,0,1,0,0,0,1 @ F,0,0,1,0,0,0,1 @ F,0,0,1,0,0,0,1 @ F,0,0,1,0,0,0,1 @ F,0,0,1,0,0,0,1 @ F,0,0,1,0,0,0,1"
       radius="0"
       unit="px"
       method="auto"
       mode="F"
       chamfer_steps="1"
       flexible="false"
       use_knot_distance="true"
       apply_no_radius="true"
       apply_with_radius="true"
       only_selected="false"
       hide_knots="false" />
    <inkscape:path-effect
       effect="fillet_chamfer"
       id="path-effect4"
       is_visible="true"
       lpeversion="1"
       nodesatellites_param="F,0,0,1,0,0,0,1 @ F,0,0,1,0,0,0,1 @ F,0,0,1,0,0,0,1 @ F,0,0,1,0,0,0,1 @ F,0,0,1,0,0,0,1 @ F,0,0,1,0,0,0,1 @ F,0,0,1,0,0,0,1 @ F,0,0,1,0,0,0,1 @ F,0,0,1,0,0,0,1 @ F,0,0,1,0,0,0,1 @ F,0,0,1,0,0,0,1"
       radius="0"
       unit="px"
       method="auto"
       mode="F"
       chamfer_steps="1"
       flexible="false"
       use_knot_distance="true"
       apply_no_radius="true"
       apply_with_radius="true"
       only_selected="false"
       hide_knots="false" />
    <inkscape:path-effect
       effect="fillet_chamfer"
       id="path-effect4-4"
       is_visible="true"
       lpeversion="1"
       nodesatellites_param="F,0,0,1,0,0,0,1 @ F,0,0,1,0,0,0,1 @ F,0,0,1,0,0,0,1 @ F,0,0,1,0,0,0,1 @ F,0,0,1,0,0,0,1 @ F,0,0,1,0,0,0,1 @ F,0,0,1,0,0,0,1 @ F,0,0,1,0,0,0,1 @ F,0,0,1,0,0,0,1 @ F,0,0,1,0,0,0,1 @ F,0,0,1,0,0,0,1"
       radius="0"
       unit="px"
       method="auto"
       mode="F"
       chamfer_steps="1"
       flexible="false"
       use_knot_distance="true"
       apply_no_radius="true"
       apply_with_radius="true"
       only_selected="false"
       hide_knots="false" />
    <inkscape:path-effect
       effect="fillet_chamfer"
       id="path-effect5-8"
       is_visible="true"
       lpeversion="1"
       nodesatellites_param="F,0,0,1,0,0,0,1 @ F,0,0,1,0,0,0,1 @ F,0,0,1,0,0,0,1 @ F,0,0,1,0,0,0,1 @ F,0,0,1,0,0,0,1 @ F,0,0,1,0,0,0,1 @ F,0,0,1,0,0,0,1 @ F,0,0,1,0,0,0,1 @ F,0,0,1,0,0,0,1 @ F,0,0,1,0,0,0,1 @ F,0,0,1,0,0,0,1"
       radius="0"
       unit="px"
       method="auto"
       mode="F"
       chamfer_steps="1"
       flexible="false"
       use_knot_distance="true"
       apply_no_radius="true"
       apply_with_radius="true"
       only_selected="false"
       hide_knots="false" />
    <inkscape:path-effect
       effect="fillet_chamfer"
       id="path-effect4-7"
       is_visible="true"
       lpeversion="1"
       nodesatellites_param="F,0,0,1,0,0,0,1 @ F,0,0,1,0,0,0,1 @ F,0,0,1,0,0,0,1 @ F,0,0,1,0,0,0,1 @ F,0,0,1,0,0,0,1 @ F,0,0,1,0,0,0,1 @ F,0,0,1,0,0,0,1 @ F,0,0,1,0,0,0,1 @ F,0,0,1,0,0,0,1 @ F,0,0,1,0,0,0,1 @ F,0,0,1,0,0,0,1"
       radius="0"
       unit="px"
       method="auto"
       mode="F"
       chamfer_steps="1"
       flexible="false"
       use_knot_distance="true"
       apply_no_radius="true"
       apply_with_radius="true"
       only_selected="false"
       hide_knots="false" />
    <inkscape:path-effect
       effect="fillet_chamfer"
       id="path-effect5-1"
       is_visible="true"
       lpeversion="1"
       nodesatellites_param="F,0,0,1,0,0,0,1 @ F,0,0,1,0,0,0,1 @ F,0,0,1,0,0,0,1 @ F,0,0,1,0,0,0,1 @ F,0,0,1,0,0,0,1 @ F,0,0,1,0,0,0,1 @ F,0,0,1,0,0,0,1 @ F,0,0,1,0,0,0,1 @ F,0,0,1,0,0,0,1 @ F,0,0,1,0,0,0,1 @ F,0,0,1,0,0,0,1"
       radius="0"
       unit="px"
       method="auto"
       mode="F"
       chamfer_steps="1"
       flexible="false"
       use_knot_distance="true"
       apply_no_radius="true"
       apply_with_radius="true"
       only_selected="false"
       hide_knots="false" />
    <inkscape:path-effect
       effect="fillet_chamfer"
       id="path-effect4-42"
       is_visible="true"
       lpeversion="1"
       nodesatellites_param="F,0,0,1,0,0,0,1 @ F,0,0,1,0,0,0,1 @ F,0,0,1,0,0,0,1 @ F,0,0,1,0,0,0,1 @ F,0,0,1,0,0,0,1 @ F,0,0,1,0,0,0,1 @ F,0,0,1,0,0,0,1 @ F,0,0,1,0,0,0,1 @ F,0,0,1,0,0,0,1 @ F,0,0,1,0,0,0,1 @ F,0,0,1,0,0,0,1"
       radius="0"
       unit="px"
       method="auto"
       mode="F"
       chamfer_steps="1"
       flexible="false"
       use_knot_distance="true"
       apply_no_radius="true"
       apply_with_radius="true"
       only_selected="false"
       hide_knots="false" />
    <inkscape:path-effect
       effect="fillet_chamfer"
       id="path-effect5-3"
       is_visible="true"
       lpeversion="1"
       nodesatellites_param="F,0,0,1,0,0,0,1 @ F,0,0,1,0,0,0,1 @ F,0,0,1,0,0,0,1 @ F,0,0,1,0,0,0,1 @ F,0,0,1,0,0,0,1 @ F,0,0,1,0,0,0,1 @ F,0,0,1,0,0,0,1 @ F,0,0,1,0,0,0,1 @ F,0,0,1,0,0,0,1 @ F,0,0,1,0,0,0,1 @ F,0,0,1,0,0,0,1"
       radius="0"
       unit="px"
       method="auto"
       mode="F"
       chamfer_steps="1"
       flexible="false"
       use_knot_distance="true"
       apply_no_radius="true"
       apply_with_radius="true"
       only_selected="false"
       hide_knots="false" />
    <inkscape:path-effect
       effect="fillet_chamfer"
       id="path-effect4-6"
       is_visible="true"
       lpeversion="1"
       nodesatellites_param="F,0,0,1,0,0,0,1 @ F,0,0,1,0,0,0,1 @ F,0,0,1,0,0,0,1 @ F,0,0,1,0,0,0,1 @ F,0,0,1,0,0,0,1 @ F,0,0,1,0,0,0,1 @ F,0,0,1,0,0,0,1 @ F,0,0,1,0,0,0,1 @ F,0,0,1,0,0,0,1 @ F,0,0,1,0,0,0,1 @ F,0,0,1,0,0,0,1"
       radius="0"
       unit="px"
       method="auto"
       mode="F"
       chamfer_steps="1"
       flexible="false"
       use_knot_distance="true"
       apply_no_radius="true"
       apply_with_radius="true"
       only_selected="false"
       hide_knots="false" />
    <inkscape:path-effect
       effect="fillet_chamfer"
       id="path-effect5-18"
       is_visible="true"
       lpeversion="1"
       nodesatellites_param="F,0,0,1,0,0,0,1 @ F,0,0,1,0,0,0,1 @ F,0,0,1,0,0,0,1 @ F,0,0,1,0,0,0,1 @ F,0,0,1,0,0,0,1 @ F,0,0,1,0,0,0,1 @ F,0,0,1,0,0,0,1 @ F,0,0,1,0,0,0,1 @ F,0,0,1,0,0,0,1 @ F,0,0,1,0,0,0,1 @ F,0,0,1,0,0,0,1"
       radius="0"
       unit="px"
       method="auto"
       mode="F"
       chamfer_steps="1"
       flexible="false"
       use_knot_distance="true"
       apply_no_radius="true"
       apply_with_radius="true"
       only_selected="false"
       hide_knots="false" />
    <inkscape:path-effect
       effect="fillet_chamfer"
       id="path-effect8-7"
       is_visible="true"
       lpeversion="1"
       nodesatellites_param="F,0,0,1,0,0,0,1 @ F,0,0,1,0,0,0,1 @ F,0,0,1,0,0,0,1 @ F,0,0,1,0,0,0,1 @ F,0,0,1,0,0,0,1 @ F,0,0,1,0,0,0,1 @ F,0,0,1,0,0,0,1 @ F,0,0,1,0,0,0,1 @ F,0,0,1,0,0,0,1 @ F,0,0,1,0,0,0,1"
       radius="0"
       unit="px"
       method="auto"
       mode="F"
       chamfer_steps="1"
       flexible="false"
       use_knot_distance="true"
       apply_no_radius="true"
       apply_with_radius="true"
       only_selected="false"
       hide_knots="false" />
    <inkscape:path-effect
       effect="fillet_chamfer"
       id="path-effect9-4"
       is_visible="true"
       lpeversion="1"
       nodesatellites_param="F,0,0,1,0,0,0,1 @ F,0,0,1,0,0,0,1 @ F,0,0,1,0,0,0,1 @ F,0,0,1,0,0,0,1 @ F,0,0,1,0,0,0,1 @ F,0,0,1,0,0,0,1 @ F,0,0,1,0,0,0,1 @ F,0,0,1,0,0,0,1 @ F,0,0,1,0,0,0,1 @ F,0,0,1,0,0,0,1 @ F,0,0,1,0,0,0,1"
       radius="0"
       unit="px"
       method="auto"
       mode="F"
       chamfer_steps="1"
       flexible="false"
       use_knot_distance="true"
       apply_no_radius="true"
       apply_with_radius="true"
       only_selected="false"
       hide_knots="false" />
    <inkscape:path-effect
       effect="fillet_chamfer"
       id="path-effect8-0"
       is_visible="true"
       lpeversion="1"
       nodesatellites_param="F,0,0,1,0,0,0,1 @ F,0,0,1,0,0,0,1 @ F,0,0,1,0,0,0,1 @ F,0,0,1,0,0,0,1 @ F,0,0,1,0,0,0,1 @ F,0,0,1,0,0,0,1 @ F,0,0,1,0,0,0,1 @ F,0,0,1,0,0,0,1 @ F,0,0,1,0,0,0,1 @ F,0,0,1,0,0,0,1"
       radius="0"
       unit="px"
       method="auto"
       mode="F"
       chamfer_steps="1"
       flexible="false"
       use_knot_distance="true"
       apply_no_radius="true"
       apply_with_radius="true"
       only_selected="false"
       hide_knots="false" />
    <inkscape:path-effect
       effect="fillet_chamfer"
       id="path-effect9-2"
       is_visible="true"
       lpeversion="1"
       nodesatellites_param="F,0,0,1,0,0,0,1 @ F,0,0,1,0,0,0,1 @ F,0,0,1,0,0,0,1 @ F,0,0,1,0,0,0,1 @ F,0,0,1,0,0,0,1 @ F,0,0,1,0,0,0,1 @ F,0,0,1,0,0,0,1 @ F,0,0,1,0,0,0,1 @ F,0,0,1,0,0,0,1 @ F,0,0,1,0,0,0,1 @ F,0,0,1,0,0,0,1"
       radius="0"
       unit="px"
       method="auto"
       mode="F"
       chamfer_steps="1"
       flexible="false"
       use_knot_distance="true"
       apply_no_radius="true"
       apply_with_radius="true"
       only_selected="false"
       hide_knots="false" />
    <inkscape:path-effect
       effect="fillet_chamfer"
       id="path-effect8-00"
       is_visible="true"
       lpeversion="1"
       nodesatellites_param="F,0,0,1,0,0,0,1 @ F,0,0,1,0,0,0,1 @ F,0,0,1,0,0,0,1 @ F,0,0,1,0,0,0,1 @ F,0,0,1,0,0,0,1 @ F,0,0,1,0,0,0,1 @ F,0,0,1,0,0,0,1 @ F,0,0,1,0,0,0,1 @ F,0,0,1,0,0,0,1 @ F,0,0,1,0,0,0,1"
       radius="0"
       unit="px"
       method="auto"
       mode="F"
       chamfer_steps="1"
       flexible="false"
       use_knot_distance="true"
       apply_no_radius="true"
       apply_with_radius="true"
       only_selected="false"
       hide_knots="false" />
    <inkscape:path-effect
       effect="fillet_chamfer"
       id="path-effect9-6"
       is_visible="true"
       lpeversion="1"
       nodesatellites_param="F,0,0,1,0,0,0,1 @ F,0,0,1,0,0,0,1 @ F,0,0,1,0,0,0,1 @ F,0,0,1,0,0,0,1 @ F,0,0,1,0,0,0,1 @ F,0,0,1,0,0,0,1 @ F,0,0,1,0,0,0,1 @ F,0,0,1,0,0,0,1 @ F,0,0,1,0,0,0,1 @ F,0,0,1,0,0,0,1 @ F,0,0,1,0,0,0,1"
       radius="0"
       unit="px"
       method="auto"
       mode="F"
       chamfer_steps="1"
       flexible="false"
       use_knot_distance="true"
       apply_no_radius="true"
       apply_with_radius="true"
       only_selected="false"
       hide_knots="false" />
  </defs>
  <g
     inkscape:label="Ğ¡Ğ»Ğ¾Ğ¹ 1"
     inkscape:groupmode="layer"
     id="layer1">
    <ellipse
       style="fill:#0000ff;stroke:#4349ff;stroke-width:0.565;stroke-linecap:round;stroke-linejoin:round;stroke-dasharray:none;stroke-opacity:1;paint-order:markers fill stroke"
       id="path1"
       cx="13.301382"
       cy="13.037814"
       rx="8.20574"
       ry="7.6961756" />
    <path
       style="fill:#4349ff;fill-opacity:1;fill-rule:evenodd;stroke:none;stroke-opacity:1"
       d="m 13.146484,20.958984 -0.263671,0.0078 c 0.01644,0.564902 -0.02824,1.476217 0.01953,2.226562 0.02389,0.375173 0.06747,0.710846 0.166015,0.958985 0.04927,0.124069 0.114279,0.230429 0.210938,0.302734 0.09666,0.07231 0.228782,0.09503 0.355469,0.06055 l -0.07031,-0.253906 c -0.06361,0.01731 -0.08923,0.0087 -0.126953,-0.01953 -0.03772,-0.02822 -0.08438,-0.09012 -0.123047,-0.1875 -0.07734,-0.194752 -0.12532,-0.513864 -0.148437,-0.876953 -0.04623,-0.726177 -0.0025,-1.632309 -0.01953,-2.21875 z"
       id="path2"
       inkscape:path-effect="#path-effect4"
       inkscape:original-d="m 13.146484,20.958984 -0.263671,0.0078 c 0.01644,0.564902 -0.02824,1.476217 0.01953,2.226562 0.02389,0.375173 0.06747,0.710846 0.166015,0.958985 0.04927,0.124069 0.114279,0.230429 0.210938,0.302734 0.09666,0.07231 0.228782,0.09503 0.355469,0.06055 l -0.07031,-0.253906 c -0.06361,0.01731 -0.08923,0.0087 -0.126953,-0.01953 -0.03772,-0.02822 -0.08438,-0.09012 -0.123047,-0.1875 -0.07734,-0.194752 -0.12532,-0.513864 -0.148437,-0.876953 -0.04623,-0.726177 -0.0025,-1.632309 -0.01953,-2.21875 z"
       transform="matrix(1,0,0,1.0972862,0,-2.0390196)" />
    <path
       style="fill:#4349ff;fill-opacity:1;fill-rule:evenodd;stroke:none;stroke-opacity:1"
       d="m 14.123047,20.96875 -0.265625,0.0078 c 0.01708,0.574572 0.100291,1.446632 0.08203,2.158204 -0.0091,0.355785 -0.04515,0.670781 -0.117187,0.875 -0.03602,0.102109 -0.08024,0.173941 -0.123047,0.21289 -0.04281,0.03895 -0.07981,0.05253 -0.144531,0.04687 l -0.02344,0.263672 c 0.130155,0.01138 0.255773,-0.03342 0.345703,-0.115234 0.08993,-0.08181 0.148279,-0.192517 0.19336,-0.320313 0.09016,-0.255592 0.123353,-0.588415 0.132812,-0.957031 0.01892,-0.737233 -0.06352,-1.615071 -0.08008,-2.171875 z"
       id="path3"
       inkscape:path-effect="#path-effect5"
       inkscape:original-d="m 14.123047,20.96875 -0.265625,0.0078 c 0.01708,0.574572 0.100291,1.446632 0.08203,2.158204 -0.0091,0.355785 -0.04515,0.670781 -0.117187,0.875 -0.03602,0.102109 -0.08024,0.173941 -0.123047,0.21289 -0.04281,0.03895 -0.07981,0.05253 -0.144531,0.04687 l -0.02344,0.263672 c 0.130155,0.01138 0.255773,-0.03342 0.345703,-0.115234 0.08993,-0.08181 0.148279,-0.192517 0.19336,-0.320313 0.09016,-0.255592 0.123353,-0.588415 0.132812,-0.957031 0.01892,-0.737233 -0.06352,-1.615071 -0.08008,-2.171875 z"
       transform="matrix(1,0,0,1.0972862,0,-2.0390196)" />
    <path
       style="fill:#0000ff;fill-opacity:1;stroke:none;stroke-width:0.0196525;stroke-linecap:round;stroke-linejoin:round;stroke-dasharray:none;stroke-opacity:1;paint-order:markers fill stroke"
       d="m 13.446986,24.562014 c -0.117457,-0.08758 -0.210727,-0.414934 -0.255048,-0.895159 -0.03174,-0.34394 -0.03364,-0.421274 -0.03738,-1.527989 l -0.0038,-1.113455 0.209277,-0.0016 c 0.115103,-8.71e-4 0.273028,-0.0045 0.350945,-0.008 l 0.141667,-0.0064 0.006,0.133359 c 0.0061,0.135396 0.02904,0.586403 0.05382,1.058828 0.01861,0.354687 0.0266,1.157883 0.01361,1.368924 -0.03066,0.498394 -0.09949,0.802889 -0.213765,0.9457 -0.04259,0.05323 -0.07958,0.06922 -0.161453,0.06981 -0.0621,4.35e-4 -0.07528,-0.0026 -0.103925,-0.02395 z"
       id="path5" />
    <path
       style="fill:#4349ff;fill-opacity:1;fill-rule:evenodd;stroke:none;stroke-opacity:1"
       d="m 13.146484,20.958984 -0.263671,0.0078 c 0.01644,0.564902 -0.02824,1.476217 0.01953,2.226562 0.02389,0.375173 0.06747,0.710846 0.166015,0.958985 0.04927,0.124069 0.114279,0.230429 0.210938,0.302734 0.09666,0.07231 0.228782,0.09503 0.355469,0.06055 l -0.07031,-0.253906 c -0.06361,0.01731 -0.08923,0.0087 -0.126953,-0.01953 -0.03772,-0.02822 -0.08438,-0.09012 -0.123047,-0.1875 -0.07734,-0.194752 -0.12532,-0.513864 -0.148437,-0.876953 -0.04623,-0.726177 -0.0025,-1.632309 -0.01953,-2.21875 z"
       id="path2-2"
       inkscape:path-effect="#path-effect4-4"
       inkscape:original-d="m 13.146484,20.958984 -0.263671,0.0078 c 0.01644,0.564902 -0.02824,1.476217 0.01953,2.226562 0.02389,0.375173 0.06747,0.710846 0.166015,0.958985 0.04927,0.124069 0.114279,0.230429 0.210938,0.302734 0.09666,0.07231 0.228782,0.09503 0.355469,0.06055 l -0.07031,-0.253906 c -0.06361,0.01731 -0.08923,0.0087 -0.126953,-0.01953 -0.03772,-0.02822 -0.08438,-0.09012 -0.123047,-0.1875 -0.07734,-0.194752 -0.12532,-0.513864 -0.148437,-0.876953 -0.04623,-0.726177 -0.0025,-1.632309 -0.01953,-2.21875 z"
       transform="matrix(-1,0,0,-1.0972862,26.807912,28.141365)" />
    <path
       style="fill:#4349ff;fill-opacity:1;fill-rule:evenodd;stroke:none;stroke-opacity:1"
       d="m 14.123047,20.96875 -0.265625,0.0078 c 0.01708,0.574572 0.100291,1.446632 0.08203,2.158204 -0.0091,0.355785 -0.04515,0.670781 -0.117187,0.875 -0.03602,0.102109 -0.08024,0.173941 -0.123047,0.21289 -0.04281,0.03895 -0.07981,0.05253 -0.144531,0.04687 l -0.02344,0.263672 c 0.130155,0.01138 0.255773,-0.03342 0.345703,-0.115234 0.08993,-0.08181 0.148279,-0.192517 0.19336,-0.320313 0.09016,-0.255592 0.123353,-0.588415 0.132812,-0.957031 0.01892,-0.737233 -0.06352,-1.615071 -0.08008,-2.171875 z"
       id="path3-4"
       inkscape:path-effect="#path-effect5-8"
       inkscape:original-d="m 14.123047,20.96875 -0.265625,0.0078 c 0.01708,0.574572 0.100291,1.446632 0.08203,2.158204 -0.0091,0.355785 -0.04515,0.670781 -0.117187,0.875 -0.03602,0.102109 -0.08024,0.173941 -0.123047,0.21289 -0.04281,0.03895 -0.07981,0.05253 -0.144531,0.04687 l -0.02344,0.263672 c 0.130155,0.01138 0.255773,-0.03342 0.345703,-0.115234 0.08993,-0.08181 0.148279,-0.192517 0.19336,-0.320313 0.09016,-0.255592 0.123353,-0.588415 0.132812,-0.957031 0.01892,-0.737233 -0.06352,-1.615071 -0.08008,-2.171875 z"
       transform="matrix(-1,0,0,-1.0972862,26.807912,28.141365)" />
    <path
       style="fill:#0000ff;fill-opacity:1;stroke:none;stroke-width:0.0196525;stroke-linecap:round;stroke-linejoin:round;stroke-dasharray:none;stroke-opacity:1;paint-order:markers fill stroke"
       d="m 13.360926,1.5403313 c 0.117457,0.08758 0.210727,0.414934 0.255048,0.895159 0.03174,0.34394 0.03364,0.421274 0.03738,1.527989 l 0.0038,1.113455 -0.209277,0.0016 c -0.115103,8.71e-4 -0.273028,0.0045 -0.350945,0.008 l -0.141667,0.0064 -0.006,-0.133359 c -0.0061,-0.135396 -0.02904,-0.586403 -0.05382,-1.058828 -0.01861,-0.354687 -0.0266,-1.157883 -0.01361,-1.368924 0.03066,-0.498394 0.09949,-0.802889 0.213765,-0.9457 0.04259,-0.05323 0.07958,-0.06922 0.161453,-0.06981 0.0621,-4.35e-4 0.07528,0.0026 0.103925,0.02395 z"
       id="path5-5" />
    <path
       style="fill:#4349ff;fill-opacity:1;fill-rule:evenodd;stroke:none;stroke-opacity:1"
       d="m 13.146484,20.958984 -0.263671,0.0078 c 0.01644,0.564902 -0.02824,1.476217 0.01953,2.226562 0.02389,0.375173 0.06747,0.710846 0.166015,0.958985 0.04927,0.124069 0.114279,0.230429 0.210938,0.302734 0.09666,0.07231 0.228782,0.09503 0.355469,0.06055 l -0.07031,-0.253906 c -0.06361,0.01731 -0.08923,0.0087 -0.126953,-0.01953 -0.03772,-0.02822 -0.08438,-0.09012 -0.123047,-0.1875 -0.07734,-0.194752 -0.12532,-0.513864 -0.148437,-0.876953 -0.04623,-0.726177 -0.0025,-1.632309 -0.01953,-2.21875 z"
       id="path2-5"
       inkscape:path-effect="#path-effect4-7"
       inkscape:original-d="m 13.146484,20.958984 -0.263671,0.0078 c 0.01644,0.564902 -0.02824,1.476217 0.01953,2.226562 0.02389,0.375173 0.06747,0.710846 0.166015,0.958985 0.04927,0.124069 0.114279,0.230429 0.210938,0.302734 0.09666,0.07231 0.228782,0.09503 0.355469,0.06055 l -0.07031,-0.253906 c -0.06361,0.01731 -0.08923,0.0087 -0.126953,-0.01953 -0.03772,-0.02822 -0.08438,-0.09012 -0.123047,-0.1875 -0.07734,-0.194752 -0.12532,-0.513864 -0.148437,-0.876953 -0.04623,-0.726177 -0.0025,-1.632309 -0.01953,-2.21875 z"
       transform="matrix(0,1,-1.0972862,0,27.893361,-0.7475333)" />
    <path
       style="fill:#4349ff;fill-opacity:1;fill-rule:evenodd;stroke:none;stroke-opacity:1"
       d="m 14.123047,20.96875 -0.265625,0.0078 c 0.01708,0.574572 0.100291,1.446632 0.08203,2.158204 -0.0091,0.355785 -0.04515,0.670781 -0.117187,0.875 -0.03602,0.102109 -0.08024,0.173941 -0.123047,0.21289 -0.04281,0.03895 -0.07981,0.05253 -0.144531,0.04687 l -0.02344,0.263672 c 0.130155,0.01138 0.255773,-0.03342 0.345703,-0.115234 0.08993,-0.08181 0.148279,-0.192517 0.19336,-0.320313 0.09016,-0.255592 0.123353,-0.588415 0.132812,-0.957031 0.01892,-0.737233 -0.06352,-1.615071 -0.08008,-2.171875 z"
       id="path3-2"
       inkscape:path-effect="#path-effect5-1"
       inkscape:original-d="m 14.123047,20.96875 -0.265625,0.0078 c 0.01708,0.574572 0.100291,1.446632 0.08203,2.158204 -0.0091,0.355785 -0.04515,0.670781 -0.117187,0.875 -0.03602,0.102109 -0.08024,0.173941 -0.123047,0.21289 -0.04281,0.03895 -0.07981,0.05253 -0.144531,0.04687 l -0.02344,0.263672 c 0.130155,0.01138 0.255773,-0.03342 0.345703,-0.115234 0.08993,-0.08181 0.148279,-0.192517 0.19336,-0.320313 0.09016,-0.255592 0.123353,-0.588415 0.132812,-0.957031 0.01892,-0.737233 -0.06352,-1.615071 -0.08008,-2.171875 z"
       transform="matrix(0,1,-1.0972862,0,27.893361,-0.7475333)" />
    <path
       style="fill:#0000ff;fill-opacity:1;stroke:none;stroke-width:0.0196525;stroke-linecap:round;stroke-linejoin:round;stroke-dasharray:none;stroke-opacity:1;paint-order:markers fill stroke"
       d="m 1.2923266,12.699453 c 0.08758,-0.117457 0.414934,-0.210727 0.895159,-0.255048 0.34394,-0.03174 0.421274,-0.03364 1.527989,-0.03738 l 1.113455,-0.0038 0.0016,0.209277 c 8.71e-4,0.115103 0.0045,0.273028 0.008,0.350945 l 0.0064,0.141667 -0.133359,0.006 c -0.135396,0.0061 -0.586403,0.02904 -1.058828,0.05382 -0.354687,0.01861 -1.157883,0.0266 -1.368924,0.01361 -0.498394,-0.03066 -0.802889,-0.09949 -0.9457,-0.213765 -0.05323,-0.04259 -0.06922,-0.07958 -0.06981,-0.161453 -4.35e-4,-0.0621 0.0026,-0.07528 0.02395,-0.103925 z"
       id="path5-7" />
    <path
       style="fill:#4349ff;fill-opacity:1;fill-rule:evenodd;stroke:none;stroke-opacity:1"
       d="m 13.146484,20.958984 -0.263671,0.0078 c 0.01644,0.564902 -0.02824,1.476217 0.01953,2.226562 0.02389,0.375173 0.06747,0.710846 0.166015,0.958985 0.04927,0.124069 0.114279,0.230429 0.210938,0.302734 0.09666,0.07231 0.228782,0.09503 0.355469,0.06055 l -0.07031,-0.253906 c -0.06361,0.01731 -0.08923,0.0087 -0.126953,-0.01953 -0.03772,-0.02822 -0.08438,-0.09012 -0.123047,-0.1875 -0.07734,-0.194752 -0.12532,-0.513864 -0.148437,-0.876953 -0.04623,-0.726177 -0.0025,-1.632309 -0.01953,-2.21875 z"
       id="path2-21"
       inkscape:path-effect="#path-effect4-42"
       inkscape:original-d="m 13.146484,20.958984 -0.263671,0.0078 c 0.01644,0.564902 -0.02824,1.476217 0.01953,2.226562 0.02389,0.375173 0.06747,0.710846 0.166015,0.958985 0.04927,0.124069 0.114279,0.230429 0.210938,0.302734 0.09666,0.07231 0.228782,0.09503 0.355469,0.06055 l -0.07031,-0.253906 c -0.06361,0.01731 -0.08923,0.0087 -0.126953,-0.01953 -0.03772,-0.02822 -0.08438,-0.09012 -0.123047,-0.1875 -0.07734,-0.194752 -0.12532,-0.513864 -0.148437,-0.876953 -0.04623,-0.726177 -0.0025,-1.632309 -0.01953,-2.21875 z"
       transform="matrix(0,-1,1.0972862,0,-1.3057905,26.586061)" />
    <path
       style="fill:#4349ff;fill-opacity:1;fill-rule:evenodd;stroke:none;stroke-opacity:1"
       d="m 14.123047,20.96875 -0.265625,0.0078 c 0.01708,0.574572 0.100291,1.446632 0.08203,2.158204 -0.0091,0.355785 -0.04515,0.670781 -0.117187,0.875 -0.03602,0.102109 -0.08024,0.173941 -0.123047,0.21289 -0.04281,0.03895 -0.07981,0.05253 -0.144531,0.04687 l -0.02344,0.263672 c 0.130155,0.01138 0.255773,-0.03342 0.345703,-0.115234 0.08993,-0.08181 0.148279,-0.192517 0.19336,-0.320313 0.09016,-0.255592 0.123353,-0.588415 0.132812,-0.957031 0.01892,-0.737233 -0.06352,-1.615071 -0.08008,-2.171875 z"
       id="path3-6"
       inkscape:path-effect="#path-effect5-3"
       inkscape:original-d="m 14.123047,20.96875 -0.265625,0.0078 c 0.01708,0.574572 0.100291,1.446632 0.08203,2.158204 -0.0091,0.355785 -0.04515,0.670781 -0.117187,0.875 -0.03602,0.102109 -0.08024,0.173941 -0.123047,0.21289 -0.04281,0.03895 -0.07981,0.05253 -0.144531,0.04687 l -0.02344,0.263672 c 0.130155,0.01138 0.255773,-0.03342 0.345703,-0.115234 0.08993,-0.08181 0.148279,-0.192517 0.19336,-0.320313 0.09016,-0.255592 0.123353,-0.588415 0.132812,-0.957031 0.01892,-0.737233 -0.06352,-1.615071 -0.08008,-2.171875 z"
       transform="matrix(0,-1,1.0972862,0,-1.3057905,26.586061)" />
    <path
       style="fill:#0000ff;fill-opacity:1;stroke:none;stroke-width:0.0196525;stroke-linecap:round;stroke-linejoin:round;stroke-dasharray:none;stroke-opacity:1;paint-order:markers fill stroke"
       d="m 25.295243,13.139075 c -0.08758,0.117457 -0.414934,0.210727 -0.895159,0.255048 -0.34394,0.03174 -0.421274,0.03364 -1.527989,0.03738 l -1.113455,0.0038 -0.0016,-0.209277 c -8.71e-4,-0.115103 -0.0045,-0.273028 -0.008,-0.350945 l -0.0064,-0.141667 0.133359,-0.006 c 0.135396,-0.0061 0.586403,-0.02904 1.058828,-0.05382 0.354687,-0.01861 1.157883,-0.0266 1.368924,-0.01361 0.498394,0.03066 0.802889,0.09949 0.9457,0.213765 0.05323,0.04259 0.06922,0.07958 0.06981,0.161453 4.35e-4,0.0621 -0.0026,0.07528 -0.02395,0.103925 z"
       id="path5-8" />
    <path
       style="fill-rule:evenodd;fill:#4349ff;fill-opacity:1"
       d="m 22.095703,5.8417969 c -0.0963,0.00901 -0.198875,0.038709 -0.310547,0.080078 -0.223343,0.082737 -0.483847,0.2189349 -0.761719,0.3867187 -0.555743,0.3355678 -1.17993,0.7929541 -1.666015,1.171875 l 0.162109,0.2089844 c 0.480705,-0.3747264 1.100915,-0.8284106 1.640625,-1.1542969 0.269855,-0.1629431 0.521002,-0.2927023 0.716797,-0.3652343 0.0979,-0.036266 0.181161,-0.058744 0.242188,-0.064453 0.06103,-0.00571 0.09381,0.00527 0.103515,0.011719 l 0.146485,-0.2207031 c -0.08199,-0.054453 -0.177137,-0.063697 -0.273438,-0.054688 z"
       id="path6"
       inkscape:path-effect="#path-effect8"
       inkscape:original-d="m 22.095703,5.8417969 c -0.0963,0.00901 -0.198875,0.038709 -0.310547,0.080078 -0.223343,0.082737 -0.483847,0.2189349 -0.761719,0.3867187 -0.555743,0.3355678 -1.17993,0.7929541 -1.666015,1.171875 l 0.162109,0.2089844 c 0.480705,-0.3747264 1.100915,-0.8284106 1.640625,-1.1542969 0.269855,-0.1629431 0.521002,-0.2927023 0.716797,-0.3652343 0.0979,-0.036266 0.181161,-0.058744 0.242188,-0.064453 0.06103,-0.00571 0.09381,0.00527 0.103515,0.011719 l 0.146485,-0.2207031 c -0.08199,-0.054453 -0.177137,-0.063697 -0.273438,-0.054688 z"
       transform="matrix(1.0816797,0,0,1.0783296,-1.6470015,-0.69016818)" />
    <path
       style="fill-rule:evenodd;fill:#4349ff;fill-opacity:1"
       d="m 22.359375,5.9003906 -0.138672,0.2265625 c 0.03625,0.022354 0.03097,0.018387 0.0293,0.046875 -0.0017,0.028488 -0.02411,0.092967 -0.07813,0.171875 -0.108023,0.1578164 -0.325475,0.3694305 -0.583984,0.5898438 -0.517019,0.4408265 -1.199413,0.92384 -1.583985,1.2578125 l 0.173828,0.1992187 c 0.362396,-0.3147143 1.050447,-0.8026132 1.582032,-1.2558594 0.265792,-0.226623 0.492208,-0.4428688 0.628906,-0.6425781 0.06835,-0.099855 0.118584,-0.1956473 0.125,-0.3046875 0.0064,-0.1090402 -0.05478,-0.2276943 -0.154297,-0.2890625 z"
       id="path7"
       inkscape:path-effect="#path-effect9"
       inkscape:original-d="m 22.359375,5.9003906 -0.138672,0.2265625 c 0.03625,0.022354 0.03097,0.018387 0.0293,0.046875 -0.0017,0.028488 -0.02411,0.092967 -0.07813,0.171875 -0.108023,0.1578164 -0.325475,0.3694305 -0.583984,0.5898438 -0.517019,0.4408265 -1.199413,0.92384 -1.583985,1.2578125 l 0.173828,0.1992187 c 0.362396,-0.3147143 1.050447,-0.8026132 1.582032,-1.2558594 0.265792,-0.226623 0.492208,-0.4428688 0.628906,-0.6425781 0.06835,-0.099855 0.118584,-0.1956473 0.125,-0.3046875 0.0064,-0.1090402 -0.05478,-0.2276943 -0.154297,-0.2890625 z"
       transform="matrix(1.0717484,0,0,1.1004697,-1.4352484,-0.84319964)" />
    <path
       style="fill:#0000ff;fill-opacity:1;stroke:none;stroke-width:0.0354539;stroke-linecap:round;stroke-linejoin:round;stroke-dasharray:none;stroke-opacity:1;paint-order:markers fill stroke"
       d="M 75.488454,30.61782 C 75.054768,30.096072 74.447613,29.424406 73.96585,28.933437 l -0.27376,-0.278991 0.05677,-0.04476 c 0.03122,-0.02462 0.285006,-0.219341 0.56396,-0.432717 2.406707,-1.840924 4.87355,-3.525481 6.608677,-4.51293 1.5372,-0.874811 2.791438,-1.383564 3.409876,-1.383139 0.158883,1.09e-4 0.247706,0.02135 0.321186,0.0768 0.05045,0.03807 0.05299,0.04497 0.04371,0.118739 -0.05667,0.450371 -0.521057,1.101747 -1.44124,2.021541 -0.963066,0.96266 -2.070789,1.901483 -4.583198,3.884377 -1.583852,1.250039 -2.2518,1.789923 -2.774519,2.242569 l -0.234308,0.202897 z"
       id="path9"
       transform="scale(0.26458333)" />
    <path
       style="fill:#4349ff;fill-opacity:1;fill-rule:evenodd"
       d="m 22.095703,5.8417969 c -0.0963,0.00901 -0.198875,0.038709 -0.310547,0.080078 -0.223343,0.082737 -0.483847,0.2189349 -0.761719,0.3867187 -0.555743,0.3355678 -1.17993,0.7929541 -1.666015,1.171875 l 0.162109,0.2089844 c 0.480705,-0.3747264 1.100915,-0.8284106 1.640625,-1.1542969 0.269855,-0.1629431 0.521002,-0.2927023 0.716797,-0.3652343 0.0979,-0.036266 0.181161,-0.058744 0.242188,-0.064453 0.06103,-0.00571 0.09381,0.00527 0.103515,0.011719 l 0.146485,-0.2207031 c -0.08199,-0.054453 -0.177137,-0.063697 -0.273438,-0.054688 z"
       id="path6-7"
       inkscape:path-effect="#path-effect8-7"
       inkscape:original-d="m 22.095703,5.8417969 c -0.0963,0.00901 -0.198875,0.038709 -0.310547,0.080078 -0.223343,0.082737 -0.483847,0.2189349 -0.761719,0.3867187 -0.555743,0.3355678 -1.17993,0.7929541 -1.666015,1.171875 l 0.162109,0.2089844 c 0.480705,-0.3747264 1.100915,-0.8284106 1.640625,-1.1542969 0.269855,-0.1629431 0.521002,-0.2927023 0.716797,-0.3652343 0.0979,-0.036266 0.181161,-0.058744 0.242188,-0.064453 0.06103,-0.00571 0.09381,0.00527 0.103515,0.011719 l 0.146485,-0.2207031 c -0.08199,-0.054453 -0.177137,-0.063697 -0.273438,-0.054688 z"
       transform="matrix(0,1.0816797,-1.0783296,0,27.80792,-2.6843737)" />
    <path
       style="fill:#4349ff;fill-opacity:1;fill-rule:evenodd"
       d="m 22.359375,5.9003906 -0.138672,0.2265625 c 0.03625,0.022354 0.03097,0.018387 0.0293,0.046875 -0.0017,0.028488 -0.02411,0.092967 -0.07813,0.171875 -0.108023,0.1578164 -0.325475,0.3694305 -0.583984,0.5898438 -0.517019,0.4408265 -1.199413,0.92384 -1.583985,1.2578125 l 0.173828,0.1992187 c 0.362396,-0.3147143 1.050447,-0.8026132 1.582032,-1.2558594 0.265792,-0.226623 0.492208,-0.4428688 0.628906,-0.6425781 0.06835,-0.099855 0.118584,-0.1956473 0.125,-0.3046875 0.0064,-0.1090402 -0.05478,-0.2276943 -0.154297,-0.2890625 z"
       id="path7-7"
       inkscape:path-effect="#path-effect9-4"
       inkscape:original-d="m 22.359375,5.9003906 -0.138672,0.2265625 c 0.03625,0.022354 0.03097,0.018387 0.0293,0.046875 -0.0017,0.028488 -0.02411,0.092967 -0.07813,0.171875 -0.108023,0.1578164 -0.325475,0.3694305 -0.583984,0.5898438 -0.517019,0.4408265 -1.199413,0.92384 -1.583985,1.2578125 l 0.173828,0.1992187 c 0.362396,-0.3147143 1.050447,-0.8026132 1.582032,-1.2558594 0.265792,-0.226623 0.492208,-0.4428688 0.628906,-0.6425781 0.06835,-0.099855 0.118584,-0.1956473 0.125,-0.3046875 0.0064,-0.1090402 -0.05478,-0.2276943 -0.154297,-0.2890625 z"
       transform="matrix(0,1.0717484,-1.1004697,0,27.960951,-2.4726206)" />
    <path
       style="fill:#0000ff;fill-opacity:1;stroke:none;stroke-width:0.00938051;stroke-linecap:round;stroke-linejoin:round;stroke-dasharray:none;stroke-opacity:1;paint-order:markers fill stroke"
       d="m 19.016787,18.935615 c 0.138046,-0.114747 0.315757,-0.27539 0.445659,-0.402856 l 0.07382,-0.07243 0.01184,0.01502 c 0.0065,0.0083 0.05803,0.07541 0.114489,0.149214 0.487078,0.636775 0.932784,1.28946 1.194046,1.748546 0.231461,0.406718 0.366068,0.738568 0.365956,0.902196 -2.9e-5,0.04204 -0.0056,0.06554 -0.02032,0.08498 -0.01007,0.01335 -0.0119,0.01402 -0.03142,0.01157 -0.11916,-0.01499 -0.291503,-0.137863 -0.534866,-0.381328 -0.254703,-0.254811 -0.5031,-0.547896 -1.027741,-1.212638 -0.33074,-0.419061 -0.473584,-0.595789 -0.593346,-0.734091 l -0.05368,-0.06199 z"
       id="path9-9" />
    <path
       style="fill:#4349ff;fill-opacity:1;fill-rule:evenodd"
       d="m 22.095703,5.8417969 c -0.0963,0.00901 -0.198875,0.038709 -0.310547,0.080078 -0.223343,0.082737 -0.483847,0.2189349 -0.761719,0.3867187 -0.555743,0.3355678 -1.17993,0.7929541 -1.666015,1.171875 l 0.162109,0.2089844 c 0.480705,-0.3747264 1.100915,-0.8284106 1.640625,-1.1542969 0.269855,-0.1629431 0.521002,-0.2927023 0.716797,-0.3652343 0.0979,-0.036266 0.181161,-0.058744 0.242188,-0.064453 0.06103,-0.00571 0.09381,0.00527 0.103515,0.011719 l 0.146485,-0.2207031 c -0.08199,-0.054453 -0.177137,-0.063697 -0.273438,-0.054688 z"
       id="path6-8"
       inkscape:path-effect="#path-effect8-0"
       inkscape:original-d="m 22.095703,5.8417969 c -0.0963,0.00901 -0.198875,0.038709 -0.310547,0.080078 -0.223343,0.082737 -0.483847,0.2189349 -0.761719,0.3867187 -0.555743,0.3355678 -1.17993,0.7929541 -1.666015,1.171875 l 0.162109,0.2089844 c 0.480705,-0.3747264 1.100915,-0.8284106 1.640625,-1.1542969 0.269855,-0.1629431 0.521002,-0.2927023 0.716797,-0.3652343 0.0979,-0.036266 0.181161,-0.058744 0.242188,-0.064453 0.06103,-0.00571 0.09381,0.00527 0.103515,0.011719 l 0.146485,-0.2207031 c -0.08199,-0.054453 -0.177137,-0.063697 -0.273438,-0.054688 z"
       transform="matrix(0,-1.0816797,1.0783296,0,-1.371824,28.928695)" />
    <path
       style="fill:#4349ff;fill-opacity:1;fill-rule:evenodd"
       d="m 22.359375,5.9003906 -0.138672,0.2265625 c 0.03625,0.022354 0.03097,0.018387 0.0293,0.046875 -0.0017,0.028488 -0.02411,0.092967 -0.07813,0.171875 -0.108023,0.1578164 -0.325475,0.3694305 -0.583984,0.5898438 -0.517019,0.4408265 -1.199413,0.92384 -1.583985,1.2578125 l 0.173828,0.1992187 c 0.362396,-0.3147143 1.050447,-0.8026132 1.582032,-1.2558594 0.265792,-0.226623 0.492208,-0.4428688 0.628906,-0.6425781 0.06835,-0.099855 0.118584,-0.1956473 0.125,-0.3046875 0.0064,-0.1090402 -0.05478,-0.2276943 -0.154297,-0.2890625 z"
       id="path7-6"
       inkscape:path-effect="#path-effect9-2"
       inkscape:original-d="m 22.359375,5.9003906 -0.138672,0.2265625 c 0.03625,0.022354 0.03097,0.018387 0.0293,0.046875 -0.0017,0.028488 -0.02411,0.092967 -0.07813,0.171875 -0.108023,0.1578164 -0.325475,0.3694305 -0.583984,0.5898438 -0.517019,0.4408265 -1.199413,0.92384 -1.583985,1.2578125 l 0.173828,0.1992187 c 0.362396,-0.3147143 1.050447,-0.8026132 1.582032,-1.2558594 0.265792,-0.226623 0.492208,-0.4428688 0.628906,-0.6425781 0.06835,-0.099855 0.118584,-0.1956473 0.125,-0.3046875 0.0064,-0.1090402 -0.05478,-0.2276943 -0.154297,-0.2890625 z"
       transform="matrix(0,-1.0717484,1.1004697,0,-1.5248554,28.716941)" />
    <path
       style="fill:#0000ff;fill-opacity:1;stroke:none;stroke-width:0.00938051;stroke-linecap:round;stroke-linejoin:round;stroke-dasharray:none;stroke-opacity:1;paint-order:markers fill stroke"
       d="M 7.419309,7.3087068 C 7.2812631,7.4234529 7.1035515,7.5840959 6.9736493,7.7115624 l -0.073816,0.072432 -0.011843,-0.01502 C 6.8814803,7.7607144 6.8299563,7.6935664 6.7735006,7.61976 6.2864227,6.9829854 5.840717,6.3302998 5.5794544,5.8712142 5.347994,5.4644967 5.2133865,5.1326462 5.2134989,4.9690178 c 2.89e-5,-0.042038 0.00565,-0.065539 0.02032,-0.08498 0.010073,-0.013348 0.011898,-0.01402 0.031416,-0.011565 0.119161,0.014994 0.2915043,0.1378626 0.5348664,0.3813277 0.2547038,0.2548112 0.5031007,0.5478962 1.0277414,1.2126378 0.3307395,0.4190608 0.4735838,0.5957887 0.5933464,0.7340915 l 0.053683,0.061994 z"
       id="path9-5" />
    <path
       style="fill:#4349ff;fill-opacity:1;fill-rule:evenodd"
       d="m 22.095703,5.8417969 c -0.0963,0.00901 -0.198875,0.038709 -0.310547,0.080078 -0.223343,0.082737 -0.483847,0.2189349 -0.761719,0.3867187 -0.555743,0.3355678 -1.17993,0.7929541 -1.666015,1.171875 l 0.162109,0.2089844 c 0.480705,-0.3747264 1.100915,-0.8284106 1.640625,-1.1542969 0.269855,-0.1629431 0.521002,-0.2927023 0.716797,-0.3652343 0.0979,-0.036266 0.181161,-0.058744 0.242188,-0.064453 0.06103,-0.00571 0.09381,0.00527 0.103515,0.011719 l 0.146485,-0.2207031 c -0.08199,-0.054453 -0.177137,-0.063697 -0.273438,-0.054688 z"
       id="path6-3"
       inkscape:path-effect="#path-effect8-00"
       inkscape:original-d="m 22.095703,5.8417969 c -0.0963,0.00901 -0.198875,0.038709 -0.310547,0.080078 -0.223343,0.082737 -0.483847,0.2189349 -0.761719,0.3867187 -0.555743,0.3355678 -1.17993,0.7929541 -1.666015,1.171875 l 0.162109,0.2089844 c 0.480705,-0.3747264 1.100915,-0.8284106 1.640625,-1.1542969 0.269855,-0.1629431 0.521002,-0.2927023 0.716797,-0.3652343 0.0979,-0.036266 0.181161,-0.058744 0.242188,-0.064453 0.06103,-0.00571 0.09381,0.00527 0.103515,0.011719 l 0.146485,-0.2207031 c -0.08199,-0.054453 -0.177137,-0.063697 -0.273438,-0.054688 z"
       transform="matrix(-1.0816797,0,0,-1.0783296,28.922639,27.321424)" />
    <path
       style="fill:#4349ff;fill-opacity:1;fill-rule:evenodd"
       d="m 22.359375,5.9003906 -0.138672,0.2265625 c 0.03625,0.022354 0.03097,0.018387 0.0293,0.046875 -0.0017,0.028488 -0.02411,0.092967 -0.07813,0.171875 -0.108023,0.1578164 -0.325475,0.3694305 -0.583984,0.5898438 -0.517019,0.4408265 -1.199413,0.92384 -1.583985,1.2578125 l 0.173828,0.1992187 c 0.362396,-0.3147143 1.050447,-0.8026132 1.582032,-1.2558594 0.265792,-0.226623 0.492208,-0.4428688 0.628906,-0.6425781 0.06835,-0.099855 0.118584,-0.1956473 0.125,-0.3046875 0.0064,-0.1090402 -0.05478,-0.2276943 -0.154297,-0.2890625 z"
       id="path7-8"
       inkscape:path-effect="#path-effect9-6"
       inkscape:original-d="m 22.359375,5.9003906 -0.138672,0.2265625 c 0.03625,0.022354 0.03097,0.018387 0.0293,0.046875 -0.0017,0.028488 -0.02411,0.092967 -0.07813,0.171875 -0.108023,0.1578164 -0.325475,0.3694305 -0.583984,0.5898438 -0.517019,0.4408265 -1.199413,0.92384 -1.583985,1.2578125 l 0.173828,0.1992187 c 0.362396,-0.3147143 1.050447,-0.8026132 1.582032,-1.2558594 0.265792,-0.226623 0.492208,-0.4428688 0.628906,-0.6425781 0.06835,-0.099855 0.118584,-0.1956473 0.125,-0.3046875 0.0064,-0.1090402 -0.05478,-0.2276943 -0.154297,-0.2890625 z"
       transform="matrix(-1.0717484,0,0,-1.1004697,28.710885,27.474456)" />
    <path
       style="fill:#0000ff;fill-opacity:1;stroke:none;stroke-width:0.00938051;stroke-linecap:round;stroke-linejoin:round;stroke-dasharray:none;stroke-opacity:1;paint-order:markers fill stroke"
       d="m 7.3026511,18.530291 c 0.114746,0.138046 0.275389,0.315758 0.402855,0.44566 l 0.07243,0.07382 -0.01502,0.01184 c -0.0083,0.0065 -0.07541,0.05803 -0.149214,0.11449 -0.636775,0.487078 -1.28946,0.932783 -1.748546,1.194046 -0.406718,0.23146 -0.738568,0.366068 -0.902196,0.365955 -0.04204,-2.9e-5 -0.06554,-0.0056 -0.08498,-0.02032 -0.01335,-0.01007 -0.01402,-0.0119 -0.01156,-0.03142 0.014992,-0.119161 0.137865,-0.291504 0.38133,-0.534866 0.254811,-0.254704 0.547896,-0.503101 1.212638,-1.027742 0.419061,-0.330739 0.595789,-0.473583 0.734092,-0.593346 l 0.06199,-0.05368 z"
       id="path9-93" />
    <path
       style="fill:#8fffff;fill-rule:evenodd;stroke-linecap:round"
       d="m 19.644531,9.0761719 c -0.03878,0.023766 -0.05101,0.074441 -0.02734,0.1132812 1.940882,3.1531979 1.20206,6.4204139 -0.833984,8.5449219 -2.036044,2.124508 -5.368776,3.098118 -8.630859,1.632812 -0.04153,-0.01894 -0.09054,-5.54e-4 -0.109375,0.04102 -0.01894,0.04153 -5.6e-4,0.09054 0.04101,0.109375 3.325378,1.493737 6.737428,0.501425 8.81836,-1.669922 2.080932,-2.171347 2.832938,-5.531502 0.855468,-8.7441404 -0.02377,-0.038785 -0.07444,-0.051017 -0.113281,-0.027344 z"
       id="path10"
       inkscape:path-effect="#path-effect10"
       inkscape:original-d="m 19.644531,9.0761719 a 0.0825,0.0825 0 0 0 -0.02734,0.1132812 c 1.940882,3.1531979 1.20206,6.4204139 -0.833984,8.5449219 -2.036044,2.124508 -5.368776,3.098118 -8.630859,1.632812 a 0.0825,0.0825 0 0 0 -0.109375,0.04102 0.0825,0.0825 0 0 0 0.04101,0.109375 c 3.325378,1.493737 6.737428,0.501425 8.81836,-1.669922 2.080932,-2.171347 2.832938,-5.531502 0.855468,-8.7441404 A 0.0825,0.0825 0 0 0 19.64453,9.0761756 Z" />
    <path
       style="fill:none;fill-rule:evenodd;stroke:#8fffff;stroke-width:0.165;stroke-linecap:round;stroke-linejoin:miter;stroke-dasharray:none;stroke-opacity:1"
       d="m 11.4763,19.896708 c 4.786502,0.999258 10.398198,-3.202018 8.872724,-9.276281"
       id="path10-0"
       inkscape:connector-type="polyline"
       inkscape:connector-curvature="0"
       sodipodi:nodetypes="cc" />
    <g
       id="path4"
       transform="scale(0.26458333)">
      <path
         style="fill:#8fffff;stroke-linecap:round;stroke-linejoin:round;paint-order:markers fill stroke"
         d="m 54.971498,75.41986 c 3.908791,-0.885673 7.234859,-2.297148 10.48537,-4.44965 2.589627,-1.714862 4.913723,-3.839456 6.803769,-6.219729 3.207549,-4.039502 5.162571,-8.729381 5.754106,-13.803455 0.159913,-1.371704 0.223282,-3.263161 0.153716,-4.588158 -0.02145,-0.408625 -0.033,-0.748962 -0.02566,-0.756304 0.0073,-0.0073 0.03178,0.147679 0.0543,0.344491 0.177225,1.548767 0.230227,2.789323 0.173708,4.065774 -0.0221,0.499187 -0.06256,1.137194 -0.08991,1.417794 -0.522623,5.362809 -2.776542,10.457373 -6.509929,14.714484 -0.812384,0.926346 -2.089916,2.170917 -3.070504,2.991283 -3.494209,2.923276 -7.708998,5.015693 -12.062241,5.988256 -0.761162,0.170052 -1.553008,0.319832 -1.660635,0.314114 -0.06689,-0.0036 -0.06736,-0.005 -0.0061,-0.0189 z"
         id="path11" />
      <path
         style="fill:#8fffff;stroke-linecap:round;stroke-linejoin:round;paint-order:markers fill stroke"
         d="m 78.140625,45.591797 c -1.22e-4,3.5e-5 -0.0057,0.0038 -0.0059,0.0039 0,0 -0.002,0.002 -0.002,0.002 0,0 0,0.002 0,0.002 0,0 0,0.002 0,0.002 -3.36e-4,0.0015 -0.0018,0.0041 -0.002,0.0059 -3.61e-4,0.0035 1.77e-4,0.0062 0,0.01172 -3.53e-4,0.01108 -1.93e-4,0.02714 0,0.04687 3.88e-4,0.03948 0.0016,0.09547 0.0039,0.164062 0.0047,0.137176 0.01271,0.324931 0.02344,0.529297 0.06952,1.324153 0.0055,3.215008 -0.154297,4.585937 -0.591316,5.072197 -2.545557,9.760778 -5.751953,13.798829 -1.889341,2.379385 -4.212059,4.502534 -6.800781,6.216796 -3.249537,2.151858 -6.574709,3.56379 -10.482422,4.449219 -0.01535,0.0035 -0.02717,0.0055 -0.03516,0.0078 -0.004,0.0011 -0.007,0.0026 -0.0098,0.0039 0,0 -0.002,0 -0.002,0 0,0 -0.002,0.002 -0.002,0.002 -1.99e-4,1.81e-4 -0.0019,0.0037 -0.002,0.0039 -3.7e-5,8.5e-5 -0.0019,0.0038 -0.002,0.0039 -6e-6,8.1e-5 -2.6e-5,0.0038 0,0.0039 2.5e-5,7.9e-5 0.0019,0.0038 0.002,0.0039 0,0 0.002,0.002 0.002,0.002 1.76e-4,1.49e-4 0.0036,0.0018 0.0039,0.002 6.04e-4,2.81e-4 0.0024,0.0016 0.0039,0.002 0.003,6.86e-4 0.0073,0.0015 0.01172,0.002 0.0089,8.95e-4 0.02035,0.0011 0.03711,0.002 0.02997,0.0016 0.09973,-0.0075 0.201172,-0.02344 0.101438,-0.01592 0.233369,-0.03935 0.386719,-0.06836 0.306699,-0.05801 0.695477,-0.137605 1.076172,-0.222656 4.354939,-0.972942 8.570919,-3.06589 12.066406,-5.990235 0.981147,-0.820833 2.259365,-2.065252 3.072266,-2.992187 3.734725,-4.258637 5.988878,-9.355664 6.511719,-14.720703 0.0274,-0.281127 0.06774,-0.918614 0.08984,-1.417969 0.05654,-1.277033 0.0034,-2.519204 -0.173828,-4.06836 -0.01127,-0.09852 -0.02332,-0.185387 -0.0332,-0.248046 -0.0049,-0.03133 -0.008,-0.05723 -0.01172,-0.07422 -0.0019,-0.0085 -0.0041,-0.01473 -0.0059,-0.01953 -4.32e-4,-0.0012 -0.0014,-0.0028 -0.002,-0.0039 0,0 -0.002,-0.002 -0.002,-0.002 0,0 -0.002,-0.002 -0.002,-0.002 -1.39e-4,-1.19e-4 -0.0038,-0.0039 -0.0039,-0.0039 -1.3e-4,-4.3e-5 -0.0057,-3.5e-5 -0.0059,0 z m 0.0098,0.08789 c 0.0013,0.0074 0.0026,0.01111 0.0039,0.01953 0.0098,0.06221 0.02196,0.149757 0.0332,0.248047 0.177181,1.548378 0.230321,2.788584 0.173828,4.064453 -0.02209,0.499018 -0.06255,1.137895 -0.08984,1.417968 -0.522405,5.360579 -2.775763,10.453399 -6.507812,14.708985 -0.811867,0.925757 -2.090283,2.170335 -3.070313,2.990234 -3.492931,2.922207 -7.705093,5.014144 -12.05664,5.986328 -0.380467,0.085 -0.769751,0.164696 -1.076172,0.222657 -0.153211,0.02898 -0.285629,0.05249 -0.386719,0.06836 -0.09909,0.01555 -0.166223,0.02237 -0.191406,0.02148 3.906331,-0.886032 7.231251,-2.297573 10.480469,-4.449218 2.590531,-1.715461 4.91589,-3.839543 6.80664,-6.220704 3.208702,-4.040953 5.164106,-8.734595 5.75586,-13.810546 0.160003,-1.372479 0.223907,-3.264003 0.154296,-4.589844 -0.01072,-0.20426 -0.02074,-0.390359 -0.02539,-0.527344 -0.0021,-0.06279 -0.0034,-0.111947 -0.0039,-0.150391 z"
         id="path12" />
    </g>
  </g>
  <metadata
     id="metadata18">
    <rdf:RDF>
      <cc:Work
         rdf:about="">
        <dc:title>mine</dc:title>
      </cc:Work>
    </rdf:RDF>
  </metadata>
</svg>
